<?xml version="1.0" encoding="UTF-8"?>
<svg xmlns="http://www.w3.org/2000/svg" version="1.1" width="24" height="24" viewBox="0 0 24 24" fill="none" stroke="currentColor" stroke-width="0.8" stroke-linecap="round" stroke-linejoin="round" >
  <path d="M2.1,21.4c.3.3.7.3,1,0l2.2-2.2c.4-.4.9-.6,1.4-.6h13.4c1.1,0,2-.9,2-2V4.4c0-1.1-.9-2-2-2H3.9c-1.1,0-2,.9-2,2v16.6c0,.2,0,.4.2.5Z"/>
  <path d="M15.2,10l-1.5-5.2c-.5-1.7-1.9-1.1-1.6.2l1,3.7c.1.5-.5.6-.7.2l-1.6-3.5c-.8-1.7-2.2-.7-1.6.4l1.9,3.6c.3.6-.4.8-.7.4l-2.1-2.8c-.7-.9-2-.1-1.1,1.2l2.1,2.8c.3.3-.2.8-.6.5l-.9-.8c-1.1-1-2.2,0-1.1,1l3.9,3.9c1.1,1.2,4.9.7,5.5-1.1l2.2-6c.5-1.3-1.2-1.1-1.5-.3l-.8,1.9c-2-.3-3.2,1-3.2,2.6M8.8,15.6c-1.7-.4-3.1-1.6-3.6-3.3M7.4,16.7c-1-.1-1.9-.7-2.4-1.7"/>
</svg>
